#N canvas 1287 331 438 88 10;
#N canvas 494 185 742 875 stuff 0;
#X obj 145 7 osc/unpackOSC;
#X obj 145 29 osc/routeOSC /play;
#X obj 113 478 textfile;
#X obj 134 373 loadbang;
#X obj 113 550 print;
#X obj 197 559 t a a;
#X msg 134 443 write sequence.txt;
#X msg 113 341 rewind \, bang;
#X obj 197 774 del;
#X obj 197 796 s next;
#X obj 62 382 r next;
#N canvas 783 481 481 514 interpolation 0;
#X obj 36 92 list split 2;
#X obj 106 170 list;
#X obj 36 122 t b a;
#X msg 392 195 \$1;
#X obj 36 45 inlet;
#X obj 392 168 inlet;
#X obj 141 455 outlet;
#X msg 141 368 /invert \$1;
#X obj 141 268 line;
#X obj 180 152 r init-unform;
#X obj 69 324 change;
#X obj 141 324 change;
#X obj 213 323 change;
#X msg 69 368 /gamma \$1;
#X obj 149 120 print split;
#X obj 69 268 line;
#X obj 213 267 line;
#X obj 44 186 list trim;
#X floatatom 69 300 5 0 0 0 - - -, f 5;
#X floatatom 141 300 5 0 0 0 - - -, f 5;
#X floatatom 213 298 5 0 0 0 - - -, f 5;
#X obj 271 152 loadbang;
#X obj 69 215 routeOSC /gamma /invert /white;
#X msg 213 367 /white \$1;
#X msg 180 173 /gamma 1 \, /white 0 \, /invert 0;
#X connect 0 0 2 0;
#X connect 0 1 1 1;
#X connect 1 0 0 0;
#X connect 2 0 1 0;
#X connect 2 1 14 0;
#X connect 2 1 17 0;
#X connect 3 0 8 1;
#X connect 3 0 15 1;
#X connect 3 0 16 1;
#X connect 4 0 0 0;
#X connect 5 0 3 0;
#X connect 7 0 6 0;
#X connect 8 0 19 0;
#X connect 9 0 24 0;
#X connect 10 0 13 0;
#X connect 11 0 7 0;
#X connect 12 0 23 0;
#X connect 13 0 6 0;
#X connect 15 0 18 0;
#X connect 16 0 20 0;
#X connect 17 0 22 0;
#X connect 18 0 10 0;
#X connect 19 0 11 0;
#X connect 20 0 12 0;
#X connect 21 0 24 0;
#X connect 22 0 15 0;
#X connect 22 1 8 0;
#X connect 22 2 16 0;
#X connect 23 0 6 0;
#X connect 24 0 22 0;
#X restore 288 639 pd interpolation;
#X obj 145 -15 net/udpreceive 9002;
#X obj 197 592 list split 1;
#X obj 113 258 spigot 1;
#X obj 113 280 t b b;
#X msg 156 280 0;
#X msg 199 234 1;
#N canvas 1006 328 450 556 send-osc 0;
#X obj 94 51 osc/packOSC;
#X obj 94 173 net/udpsend;
#X msg 157 116 connect 127.0.0.1 9000;
#X obj 157 96 loadbang;
#X obj 94 73 spigot;
#X obj 94 208 f;
#X obj 94 230 tgl 15 0 empty empty empty 17 7 0 10 -262144 -1 -1 1
1;
#X obj 94 250 t a a;
#X obj 157 138 t b a;
#X obj 94 270 sel 0 1;
#X obj 94 31 inlet;
#X obj 56 355 del 1000;
#X obj 117 291 t b b;
#X msg 149 312 stop;
#X obj 117 337 s init-unform;
#X msg 232 151 disconnect;
#X msg 223 199 connect 10.1.1.100 9000;
#X connect 0 0 4 0;
#X connect 1 0 5 0;
#X connect 2 0 8 0;
#X connect 3 0 2 0;
#X connect 4 0 1 0;
#X connect 5 0 6 0;
#X connect 6 0 7 0;
#X connect 7 0 9 0;
#X connect 7 1 4 1;
#X connect 8 0 5 0;
#X connect 8 1 1 0;
#X connect 9 0 11 0;
#X connect 9 1 12 0;
#X connect 10 0 0 0;
#X connect 11 0 2 0;
#X connect 12 0 14 0;
#X connect 12 1 13 0;
#X connect 13 0 11 0;
#X connect 15 0 1 0;
#X connect 16 0 1 0;
#X restore 288 666 pd send-osc;
#X obj 307 29 bng 15 250 50 0 init-uniform empty empty 17 7 0 10 -262144
-1 -1;
#X text 323 29 initialize uniform variables;
#X text 250 443 sauver la séquence;
#X obj 330 220 print;
#X msg 330 198 fin de la séquence;
#X obj 382 300 del 15000;
#X obj 113 157 sel 1 0;
#X msg 342 276 stop;
#X obj 382 362 t b b;
#X msg 409 416 stop;
#X obj 362 364 bng 15 250 50 0 empty empty empty 17 7 0 10 -262144
-1 -1;
#X obj 302 86 tgl 15 0 empty empty empty 17 7 0 10 -262144 -1 -1 0
1;
#X obj 231 694 f;
#X obj 231 746 print -n;
#X msg 231 726 sequencer is waiting for \$1 s...;
#X obj 231 612 route wait;
#X obj 231 634 t b;
#X msg 242 665 \$1;
#X obj 302 52 nbx 5 14 0 1e+37 0 1 empty empty empty 0 -8 0 10 -262144
-1 -1 8 256;
#X obj 485 209 * 1000;
#X text 356 50 temps d'attente en sec. avant de réinitialiser la séquence
;
#X obj 302 69 nbx 5 14 0 1e+37 0 1 empty empty empty 0 -8 0 10 -262144
-1 -1 5 256;
#X text 357 68 temps de réinitialisation;
#X obj 446 416 f 5000;
#X obj 537 264 * 1000;
#X text 321 86 état du capteur \, clic pour simuler;
#X msg 382 390 /invert 0 /gamma 2.2;
#X obj 559 133 s pd-stuff;
#X text 576 92 voir le patch;
#X obj 559 93 bng 15 250 50 0 empty empty empty 17 7 0 10 -262144 -1
-1;
#X msg 559 112 vis 1;
#X obj 382 323 t b b;
#X msg 470 302 0;
#X obj 382 277 spigot;
#X msg 415 255 1;
#X msg 134 393 read sequence.txt;
#X obj 113 131 f;
#X obj 303 174 t b b;
#X connect 0 0 1 0;
#X connect 1 0 30 0;
#X connect 2 0 4 0;
#X connect 2 0 5 0;
#X connect 2 1 56 0;
#X connect 3 0 54 0;
#X connect 5 0 13 0;
#X connect 5 1 11 1;
#X connect 5 1 36 0;
#X connect 6 0 2 0;
#X connect 7 0 2 0;
#X connect 8 0 9 0;
#X connect 10 0 2 0;
#X connect 11 0 18 0;
#X connect 12 0 0 0;
#X connect 13 0 8 0;
#X connect 13 1 34 0;
#X connect 14 0 15 0;
#X connect 15 0 7 0;
#X connect 15 1 16 0;
#X connect 15 1 53 0;
#X connect 16 0 14 1;
#X connect 17 0 14 1;
#X connect 23 0 22 0;
#X connect 24 0 50 0;
#X connect 25 0 14 0;
#X connect 25 0 26 0;
#X connect 25 1 52 0;
#X connect 26 0 24 0;
#X connect 27 0 45 0;
#X connect 27 1 28 0;
#X connect 27 1 17 0;
#X connect 27 1 42 0;
#X connect 28 0 8 0;
#X connect 29 0 27 0;
#X connect 30 0 55 0;
#X connect 31 0 33 0;
#X connect 33 0 32 0;
#X connect 34 0 35 0;
#X connect 34 1 11 0;
#X connect 35 0 31 0;
#X connect 36 0 31 1;
#X connect 37 0 38 0;
#X connect 38 0 24 1;
#X connect 40 0 43 0;
#X connect 42 0 11 1;
#X connect 43 0 42 1;
#X connect 45 0 11 0;
#X connect 48 0 49 0;
#X connect 49 0 46 0;
#X connect 50 0 27 0;
#X connect 50 1 51 0;
#X connect 51 0 52 1;
#X connect 52 0 24 0;
#X connect 53 0 52 1;
#X connect 54 0 2 0;
#X connect 55 0 25 0;
#X connect 56 0 55 0;
#X connect 56 1 51 0;
#X connect 56 1 23 0;
#X connect 56 1 17 0;
#X coords 0 -1 1 1 410 60 1 300 50;
#X restore 14 -1 pd stuff;
