#N canvas 500 139 617 726 10;
#X obj 113 134 osc/unpackOSC;
#X obj 113 156 osc/routeOSC /play;
#X obj 113 418 textfile;
#X obj 113 178 sel 1;
#X obj 134 313 loadbang;
#X msg 134 333 read sequence.txt;
#X obj 113 490 print;
#X obj 197 449 t a a;
#X msg 134 383 write sequence.txt;
#X msg 113 281 rewind \, bang;
#X obj 230 502 route wait;
#X obj 197 594 del;
#X obj 197 616 s next;
#X obj 52 290 r next;
#N canvas 80 365 1759 514 interpolation 1;
#X obj 36 92 list split 2;
#X obj 106 170 list;
#X obj 36 122 t b a;
#X obj 68 215 routeOSC /gain /alpha /invert;
#X msg 215 71 \$1;
#X obj 68 268 nusmuk-utils/line3;
#X obj 204 268 nusmuk-utils/line3;
#X obj 341 268 nusmuk-utils/line3;
#X obj 36 45 inlet;
#X obj 215 44 inlet;
#X obj 624 390 outlet;
#X msg 68 308 /gain \$1;
#X msg 204 308 /alpha \$1;
#X msg 341 308 /invert \$1;
#X floatatom 68 289 5 0 0 0 - - -, f 5;
#X floatatom 204 290 5 0 0 0 - - -, f 5;
#X floatatom 341 290 5 0 0 0 - - -, f 5;
#X obj 478 268 nusmuk-utils/line3;
#X obj 614 268 nusmuk-utils/line3;
#X obj 751 268 nusmuk-utils/line3;
#X floatatom 478 289 5 0 0 0 - - -, f 5;
#X floatatom 614 290 5 0 0 0 - - -, f 5;
#X floatatom 751 290 5 0 0 0 - - -, f 5;
#X obj 888 268 nusmuk-utils/line3;
#X obj 1024 268 nusmuk-utils/line3;
#X obj 1161 268 nusmuk-utils/line3;
#X floatatom 888 289 5 0 0 0 - - -, f 5;
#X floatatom 1024 290 5 0 0 0 - - -, f 5;
#X floatatom 1161 290 5 0 0 0 - - -, f 5;
#X obj 478 215 routeOSC /offset_r /offset_g /offset_b;
#X msg 614 308 /offset_g \$1;
#X msg 478 308 /offset_r \$1;
#X msg 751 308 /offet_b \$1;
#X obj 888 215 routeOSC /gain_r /gain_g /gain_b;
#X msg 888 308 /gain_r \$1;
#X msg 1024 308 /gain_g \$1;
#X msg 1161 308 /gain_b \$1;
#X obj 520 116 r init-unform;
#X msg 520 148 /* 0;
#X msg 559 148 /* 1, f 5;
#X msg 320 148 /alpha 1 \, /gain 1 \, invert 0;
#X obj 1308 268 nusmuk-utils/line3;
#X obj 1444 268 nusmuk-utils/line3;
#X obj 1581 268 nusmuk-utils/line3;
#X floatatom 1308 289 5 0 0 0 - - -, f 5;
#X floatatom 1444 290 5 0 0 0 - - -, f 5;
#X floatatom 1581 290 5 0 0 0 - - -, f 5;
#X msg 1308 308 /hue \$1;
#X msg 1444 308 /saturation \$1;
#X msg 1581 308 /value \$1;
#X obj 1308 215 routeOSC /hue /saturation /value;
#X connect 0 0 2 0;
#X connect 0 1 1 1;
#X connect 1 0 0 0;
#X connect 2 0 1 0;
#X connect 2 1 3 0;
#X connect 3 0 5 0;
#X connect 3 1 6 0;
#X connect 3 2 7 0;
#X connect 3 3 29 0;
#X connect 4 0 5 1;
#X connect 4 0 6 1;
#X connect 4 0 7 1;
#X connect 5 0 14 0;
#X connect 6 0 15 0;
#X connect 7 0 16 0;
#X connect 8 0 0 0;
#X connect 9 0 4 0;
#X connect 11 0 10 0;
#X connect 12 0 10 0;
#X connect 13 0 10 0;
#X connect 14 0 11 0;
#X connect 15 0 12 0;
#X connect 16 0 13 0;
#X connect 17 0 20 0;
#X connect 18 0 21 0;
#X connect 19 0 22 0;
#X connect 20 0 31 0;
#X connect 21 0 30 0;
#X connect 22 0 32 0;
#X connect 23 0 26 0;
#X connect 24 0 27 0;
#X connect 25 0 28 0;
#X connect 26 0 34 0;
#X connect 27 0 35 0;
#X connect 28 0 36 0;
#X connect 29 0 17 0;
#X connect 29 1 18 0;
#X connect 29 2 19 0;
#X connect 29 3 33 0;
#X connect 30 0 10 0;
#X connect 31 0 10 0;
#X connect 32 0 10 0;
#X connect 33 0 23 0;
#X connect 33 1 24 0;
#X connect 33 2 25 0;
#X connect 33 3 50 0;
#X connect 34 0 10 0;
#X connect 35 0 10 0;
#X connect 36 0 10 0;
#X connect 37 0 38 0;
#X connect 37 0 39 0;
#X connect 37 0 40 0;
#X connect 38 0 29 0;
#X connect 39 0 33 0;
#X connect 40 0 3 0;
#X connect 41 0 44 0;
#X connect 42 0 45 0;
#X connect 43 0 46 0;
#X connect 44 0 47 0;
#X connect 45 0 48 0;
#X connect 46 0 49 0;
#X connect 47 0 10 0;
#X connect 48 0 10 0;
#X connect 49 0 10 0;
#X connect 50 0 41 0;
#X connect 50 1 42 0;
#X connect 50 2 43 0;
#X restore 297 610 pd interpolation;
#X obj 113 112 net/udpreceive 9002;
#X obj 104 561 print del;
#X obj 197 482 list split 1;
#X obj 113 210 spigot 1;
#X obj 113 232 t b b;
#X msg 156 232 0;
#X msg 255 183 1;
#N canvas 1019 312 450 556 send-osc 0;
#X obj 94 51 osc/packOSC;
#X obj 94 173 net/udpsend;
#X msg 157 116 connect 127.0.0.1 9000;
#X obj 157 96 loadbang;
#X obj 94 73 spigot;
#X obj 94 208 f;
#X obj 94 230 tgl 15 0 empty empty empty 17 7 0 10 -262144 -1 -1 1
1;
#X obj 94 250 t a a;
#X obj 157 138 t b a;
#X obj 94 270 sel 0 1;
#X obj 94 31 inlet;
#X obj 56 355 del 1000;
#X obj 117 291 t b b;
#X msg 149 312 stop;
#X obj 117 337 s init-unform;
#X connect 0 0 4 0;
#X connect 1 0 5 0;
#X connect 2 0 8 0;
#X connect 3 0 2 0;
#X connect 4 0 1 0;
#X connect 5 0 6 0;
#X connect 6 0 7 0;
#X connect 7 0 9 0;
#X connect 7 1 4 1;
#X connect 8 0 5 0;
#X connect 8 1 1 0;
#X connect 9 0 11 0;
#X connect 9 1 12 0;
#X connect 10 0 0 0;
#X connect 11 0 2 0;
#X connect 12 0 14 0;
#X connect 12 1 13 0;
#X connect 13 0 11 0;
#X restore 297 637 pd send-osc;
#X obj 372 207 bng 15 250 50 0 init-uniform empty empty 17 7 0 10 -262144
-1 -1;
#X text 388 207 initialize uniform variables;
#X connect 0 0 1 0;
#X connect 1 0 3 0;
#X connect 2 0 6 0;
#X connect 2 0 7 0;
#X connect 2 1 21 0;
#X connect 3 0 18 0;
#X connect 4 0 5 0;
#X connect 5 0 2 0;
#X connect 7 0 17 0;
#X connect 7 1 14 1;
#X connect 8 0 2 0;
#X connect 9 0 2 0;
#X connect 10 1 14 0;
#X connect 11 0 12 0;
#X connect 13 0 2 0;
#X connect 14 0 22 0;
#X connect 15 0 0 0;
#X connect 17 0 11 0;
#X connect 17 0 16 0;
#X connect 17 1 10 0;
#X connect 18 0 19 0;
#X connect 19 0 9 0;
#X connect 19 1 20 0;
#X connect 20 0 18 1;
#X connect 21 0 18 1;
