#N canvas 149 237 652 694 10;
#X obj 76 72 gemhead;
#X obj 76 447 glsl_program;
#X obj 169 409 print linking;
#X obj 76 501 rotateXYZ;
#X floatatom 96 479 5 0 0 0 - - -, f 5;
#X floatatom 140 479 5 0 0 0 - - -, f 5;
#X floatatom 182 479 5 0 0 0 - - -, f 5;
#X obj 76 630 pix_texture;
#X obj 106 149 bng 15 250 50 0 empty empty empty 0 -6 0 8 -262144 -1
-1;
#X obj 76 277 glsl_fragment;
#X msg 114 194 0;
#X floatatom 351 321 5 0 0 0 - - -, f 5;
#X floatatom 352 360 5 0 0 0 - - -, f 5;
#X text 400 320 <- adjust Brightness;
#X text 138 147 <- load shader;
#X obj 114 215 s rectangle;
#X msg 39 420 print;
#X floatatom 192 452 0 0 0 0 - - -;
#X obj 151 299 change;
#X obj 433 437 osc/unpackOSC;
#X obj 433 417 net/udpreceive 9000;
#X obj 156 556 r rectangle;
#X obj 156 577 tgl 15 0 empty empty empty 17 7 0 10 -262144 -1 -1 0
1;
#X msg 156 595 rectangle \$1;
#X msg 106 234 open frag.glsl;
#X obj 433 458 list split 1;
#X obj 447 55 zexy;
#X obj 433 482 s2l /;
#X obj 433 504 list append;
#X obj 433 526 list trim;
#X obj 76 94 alpha;
#X msg 151 389 link \$1;
#X msg 350 338 invert \$1;
#X obj 420 202 gemwin;
#X msg 420 156 dimen 1280 856 \, frame 60 \, create \, 1;
#X msg 429 181 destroy;
#X obj 76 654 rectangle 6 4;
#X msg 257 288 gamma 1;
#X msg 352 377 gamma \$1;
#X obj 433 588 print receiveOSC;
#X obj 433 548 spigot;
#X obj 477 549 tgl 15 0 empty empty empty 17 7 0 10 -262144 -1 -1 0
1;
#X floatatom 325 408 5 0 0 0 - - -, f 5;
#X msg 325 428 white \$1;
#X obj 106 127 loadbang;
#X obj 142 528 pix_image paysage.png;
#X obj 76 529 pix_video;
#X connect 0 0 30 0;
#X connect 1 0 3 0;
#X connect 1 1 17 0;
#X connect 3 0 46 0;
#X connect 4 0 3 1;
#X connect 5 0 3 2;
#X connect 6 0 3 3;
#X connect 7 0 36 0;
#X connect 8 0 24 0;
#X connect 8 0 10 0;
#X connect 9 0 1 0;
#X connect 9 1 18 0;
#X connect 10 0 15 0;
#X connect 11 0 32 0;
#X connect 12 0 38 0;
#X connect 16 0 1 0;
#X connect 18 0 31 0;
#X connect 19 0 25 0;
#X connect 20 0 19 0;
#X connect 21 0 22 0;
#X connect 22 0 23 0;
#X connect 23 0 7 0;
#X connect 24 0 9 0;
#X connect 25 0 27 0;
#X connect 25 1 28 1;
#X connect 27 0 28 0;
#X connect 28 0 29 0;
#X connect 29 0 1 0;
#X connect 29 0 40 0;
#X connect 30 0 9 0;
#X connect 31 0 1 0;
#X connect 31 0 2 0;
#X connect 32 0 1 0;
#X connect 34 0 33 0;
#X connect 35 0 33 0;
#X connect 37 0 1 0;
#X connect 38 0 1 0;
#X connect 40 0 39 0;
#X connect 41 0 40 1;
#X connect 42 0 43 0;
#X connect 43 0 1 0;
#X connect 44 0 8 0;
#X connect 46 0 7 0;
